<svg id="Layer_1" data-name="Layer 1" xmlns="http://www.w3.org/2000/svg" viewBox="0 0 50 50"><defs><style>.cls-1{fill:#e01010;fill-rule:evenodd;}</style></defs><title>github</title><path class="cls-1" d="M25,2a23,23,0,0,0-7.27,44.82c1.15.22,1.57-.49,1.57-1.1s0-2,0-3.92c-6.4,1.39-7.75-3.08-7.75-3.08A6,6,0,0,0,9,35.36c-2.09-1.43.16-1.4.16-1.4a4.84,4.84,0,0,1,3.52,2.37c2,3.51,5.38,2.5,6.69,1.91a4.92,4.92,0,0,1,1.46-3.08c-5.11-.58-10.47-2.55-10.47-11.36a8.87,8.87,0,0,1,2.36-6.17,8.34,8.34,0,0,1,.23-6.09s1.93-.62,6.32,2.36a21.66,21.66,0,0,1,11.52,0c4.39-3,6.32-2.36,6.32-2.36a8.34,8.34,0,0,1,.23,6.09,8.87,8.87,0,0,1,2.36,6.17c0,8.83-5.38,10.78-10.5,11.35a5.47,5.47,0,0,1,1.56,4.26c0,3.07,0,5.55,0,6.31s.42,1.33,1.58,1.1A23,23,0,0,0,25,2Z"/></svg>