<svg id="Layer_1" data-name="Layer 1" xmlns="http://www.w3.org/2000/svg" viewBox="0 0 50 50"><defs><style>.cls-1{fill:#e01010;}</style></defs><title>mail</title><path class="cls-1" d="M43.86,9.5H6.14A5.1,5.1,0,0,0,1,14.6V35a5.1,5.1,0,0,0,5.1,5.1H43.86A5.1,5.1,0,0,0,49,35V14.6A5.1,5.1,0,0,0,43.86,9.5ZM6.14,13.42H43.86A1.2,1.2,0,0,1,45,14.6v.63L29.5,24.47a10,10,0,0,1-9,0L5,15.23V14.6A1.2,1.2,0,0,1,6.14,13.42ZM43.86,36.21H6.14A1.19,1.19,0,0,1,5,35V19.8l13.54,8A12.86,12.86,0,0,0,25,29.47a12.86,12.86,0,0,0,6.5-1.63L45,19.8V35A1.19,1.19,0,0,1,43.86,36.21Z"/></svg>