<svg id="Layer_1" data-name="Layer 1" xmlns="http://www.w3.org/2000/svg" viewBox="0 0 50 50"><defs><style>.cls-1{fill:#e01010;}</style></defs><title>orcid</title><path class="cls-1" d="M25,2A23,23,0,1,0,48,25,23,23,0,0,0,25,2ZM18.25,36.2H14V15.47h4.25ZM16.12,14.76a2.56,2.56,0,1,1,2.56-2.55A2.55,2.55,0,0,1,16.12,14.76Zm13,21.46H20.83V15.47H29c7.55,0,11,5.38,11,10.37S36.19,36.22,29.08,36.22Z"/><path class="cls-1" d="M28.59,19.45H25.08V32.24h3.66c5.5,0,7-4,7-6.4C35.7,21.84,33.05,19.45,28.59,19.45Z"/></svg>