<svg id="Layer_1" data-name="Layer 1" xmlns="http://www.w3.org/2000/svg" viewBox="0 0 50 50"><defs><style>.cls-1{fill:#e01010;}</style></defs><title>scholar</title><path class="cls-1" d="M10,49a8.67,8.67,0,0,1-6.34-2.63,8.5,8.5,0,0,1-2-2.91A9,9,0,0,1,1,40V10a8.91,8.91,0,0,1,.66-3.45,8.83,8.83,0,0,1,2-2.92,8.74,8.74,0,0,1,2.9-2A8.86,8.86,0,0,1,10,1H40a9,9,0,0,1,3.46.66,8.68,8.68,0,0,1,2.91,2,9.44,9.44,0,0,1,2,2.92A8.73,8.73,0,0,1,49,10V40a8.73,8.73,0,0,1-.67,3.45,9.56,9.56,0,0,1-2,2.92,8.83,8.83,0,0,1-2.91,2A9,9,0,0,1,40,49H29.28c.48-.22.94-.45,1.39-.7a11.91,11.91,0,0,0,1.89-1.41A8.5,8.5,0,0,0,34,45.05a7.66,7.66,0,0,0,1-2.14,8.84,8.84,0,0,0,.33-2.45,9,9,0,0,0-.19-1.83,7.67,7.67,0,0,0-.58-1.69,14.78,14.78,0,0,0-.89-1.41,10.8,10.8,0,0,0-1-1.19c-.38-.33-.76-.64-1.14-1s-.77-.6-1.15-.88a13.42,13.42,0,0,1-1.05-.86c-.32-.29-.6-.58-.86-.86a4.32,4.32,0,0,1-.59-.9,2,2,0,0,1-.21-.86,2.48,2.48,0,0,1,.15-.84,3.18,3.18,0,0,1,.46-.84,9.21,9.21,0,0,1,.67-.77,8.76,8.76,0,0,1,.82-.76l.86-.79a11.63,11.63,0,0,0,.86-.86,7,7,0,0,0,.78-1,8.3,8.3,0,0,0,.67-1.3,7.55,7.55,0,0,0,.46-1.53,9.33,9.33,0,0,0,.15-1.72,10,10,0,0,0-.21-2.14,5.56,5.56,0,0,0-.67-1.72.48.48,0,0,0-.09-.19l-.14-.19,6.65-5.43v2c-.43.07-.66.23-.7.46a4.66,4.66,0,0,0-.06.8v15a1.21,1.21,0,0,0,.36.89,1.19,1.19,0,0,0,.9.37H40a1.23,1.23,0,0,0,.88-.37,1.19,1.19,0,0,0,.38-.89v-15a4.66,4.66,0,0,0-.06-.8c0-.23-.27-.39-.7-.46V7.73l2.29-1.79H17.9l-15,13.11h10a1.22,1.22,0,0,0,0,.34v.39a8.44,8.44,0,0,0,.63,3.3,8.22,8.22,0,0,0,1.89,2.74,8.86,8.86,0,0,0,2.81,1.8,9.38,9.38,0,0,0,3.42.61c.28,0,.56,0,.84,0s.56-.07.84-.12a6.53,6.53,0,0,0-.4,1.11,4.23,4.23,0,0,0-.13,1,4.42,4.42,0,0,0,.4,1.77,8,8,0,0,0,1.16,1.89,34.85,34.85,0,0,0-5.92.87,14.69,14.69,0,0,0-4.13,1.62,9,9,0,0,0-1.66,1.26,11.56,11.56,0,0,0-1.32,1.57A8.21,8.21,0,0,0,10.43,41,6.53,6.53,0,0,0,10.15,43a6.43,6.43,0,0,0,.19,1.6A5.87,5.87,0,0,0,10.87,46a7.56,7.56,0,0,0,.86,1.24,6.93,6.93,0,0,0,1,1A10.83,10.83,0,0,0,14,49ZM25.83,36l.25.17.59.42.61.45a1.17,1.17,0,0,0,.33.21,2.42,2.42,0,0,0,.28.23l.52.43c.21.17.39.32.54.46l.33.31a2.83,2.83,0,0,1,.29.35,5,5,0,0,0,.4.45c.14.19.27.36.37.52a2.15,2.15,0,0,1,.22.42c.05.14.1.29.16.44a4.92,4.92,0,0,1,.16.5A2.87,2.87,0,0,1,31,42a5.41,5.41,0,0,1,0,.59,5,5,0,0,1-.52,2.35A4.39,4.39,0,0,1,29,46.54a8,8,0,0,1-2.28,1,11,11,0,0,1-2.7.31,11.64,11.64,0,0,1-1.45-.09c-.47-.05-.94-.13-1.4-.22a10,10,0,0,1-1.4-.44,11.1,11.1,0,0,1-1.32-.61,4.75,4.75,0,0,1-1.15-.8,5.5,5.5,0,0,1-.9-1.08,4,4,0,0,1-.61-1.29,5.48,5.48,0,0,1-.19-1.49,5.14,5.14,0,0,1,.22-1.55A4.3,4.3,0,0,1,16.47,39a6.88,6.88,0,0,1,1-1.06,5.61,5.61,0,0,1,1.3-.78,12.29,12.29,0,0,1,1.47-.52,14.76,14.76,0,0,1,1.46-.35c.48-.09,1-.16,1.49-.21s1-.07,1.53-.07l.63,0A3.58,3.58,0,0,1,25.83,36Zm-.12-22.41A9.12,9.12,0,0,1,27,15.32a11.11,11.11,0,0,1,.81,1.88,13.68,13.68,0,0,1,.47,2A10.79,10.79,0,0,1,28.39,21a6.06,6.06,0,0,1-.3,2,4.63,4.63,0,0,1-.88,1.58,3.89,3.89,0,0,1-1.41,1.05,4.71,4.71,0,0,1-1.86.34,4.29,4.29,0,0,1-3.3-1.49,8.45,8.45,0,0,1-1.23-1.62A8.8,8.8,0,0,1,18.59,21a12.77,12.77,0,0,1-.47-1.92A11.8,11.8,0,0,1,18,17.24a7.05,7.05,0,0,1,.28-2,5.32,5.32,0,0,1,.87-1.69,3.6,3.6,0,0,1,1.37-1.15,4.54,4.54,0,0,1,1.9-.38,4,4,0,0,1,1.77.4A5.11,5.11,0,0,1,25.71,13.62Z"/></svg>