<svg id="Layer_1" data-name="Layer 1" xmlns="http://www.w3.org/2000/svg" viewBox="0 0 50 50"><defs><style>.cls-1{fill:#e01010;}</style></defs><title>twitter</title><path class="cls-1" d="M16.47,43.69c17.35,0,26.85-14.38,26.85-26.85,0-.41,0-.82,0-1.22A19.21,19.21,0,0,0,48,10.73a19.22,19.22,0,0,1-5.42,1.49A9.52,9.52,0,0,0,46.73,7a19.21,19.21,0,0,1-6,2.29,9.45,9.45,0,0,0-16.09,8.6A26.77,26.77,0,0,1,5.2,8a9.46,9.46,0,0,0,2.92,12.6,9.31,9.31,0,0,1-4.28-1.18v.12a9.44,9.44,0,0,0,7.57,9.25A9.3,9.3,0,0,1,7.15,29,9.46,9.46,0,0,0,16,35.54,19,19,0,0,1,4.25,39.59,21.23,21.23,0,0,1,2,39.45a26.71,26.71,0,0,0,14.47,4.23"/></svg>